<?xml version="1.0" encoding="UTF-8" standalone="no"?>
<!DOCTYPE svg PUBLIC "-//W3C//DTD SVG 1.1//EN" "http://www.w3.org/Graphics/SVG/1.1/DTD/svg11.dtd">
<svg width="100%" height="100%" viewBox="0 0 425 483" version="1.1" xmlns="http://www.w3.org/2000/svg" xmlns:xlink="http://www.w3.org/1999/xlink" xml:space="preserve" xmlns:serif="http://www.serif.com/" style="fill-rule:evenodd;clip-rule:evenodd;stroke-linejoin:round;stroke-miterlimit:2;">
    <g transform="matrix(1,0,0,1,-175.383,0)">
        <g id="Artboard1" transform="matrix(0.707695,0,0,0.80448,175.383,0)">
            <rect x="0" y="0" width="600" height="600" style="fill:none;"/>
            <g transform="matrix(1.37093,0,0,1.20599,8.94207,8.9419)">
                <path d="M69.957,265.192C65.986,269.649 63.258,275.229 61.887,282.009C59.851,292.079 61.775,301.107 67.451,309.133C72.619,316.442 81.033,321.95 93.387,324.448C93.387,324.448 136.249,333.115 136.249,333.115C136.249,333.115 131.288,357.651 131.288,357.651C125.307,387.229 127.568,410.67 136.668,428.072C146.42,446.724 163.571,459.071 188.769,464.166C200.301,466.498 211.07,466.59 221.075,464.601C231.574,462.513 240.946,458.234 249.207,451.793C257.34,445.451 263.934,437.331 268.904,427.364C273.388,418.509 277.54,405.385 281.069,387.936C281.069,387.936 291.925,334.243 291.925,334.243C292.817,329.834 297.911,322.183 300.307,322.183C314.307,322.183 326.9,320.407 338.1,316.964C349.888,313.34 359.997,308.078 368.485,301.289C377.388,294.168 384.167,285.634 388.866,275.723C393.529,265.886 395.907,255.152 395.907,243.501C395.907,231.76 393.549,221.033 388.949,211.297C384.304,201.466 377.552,192.961 368.634,185.829C361.625,180.223 353.469,175.64 344.132,172.153C347.282,167.888 349.945,163.272 352.122,158.308C356.386,148.587 358.566,137.978 358.566,126.463C358.566,114.859 356.405,104.257 352.199,94.634C347.894,84.785 341.619,76.281 333.354,69.135C325.384,62.244 315.838,56.883 304.657,53.159C294.005,49.61 282.149,47.781 269.072,47.781C256.209,47.781 244.462,49.581 233.813,53.084C228.954,54.682 189.252,37.56 180.175,34.845C180.175,34.845 126.063,18.657 126.063,18.657C113.785,14.984 103.941,16.799 96.336,22.218C90.01,26.725 31.779,210.037 31.779,210.037C27.88,223.071 28.047,233.273 30.69,240.566C33.909,249.447 41.156,256.576 53.761,260.346L69.957,265.192Z" style="fill:url(#_Radial1);"/>
            </g>
            <g transform="matrix(1.47985,0,0,1.30181,-143.912,-14.1481)">
                <path d="M287.427,161.517C282.445,165.556 276.536,168.436 269.698,170.16C286.286,183.551 291.234,201.431 284.542,223.8C281.448,234.144 276.602,242.841 270.003,249.891C263.404,256.942 256.015,261.397 247.834,263.255C242.747,264.299 237.214,264.453 231.234,263.718C225.254,262.983 218.471,261.48 210.884,259.21L166.93,246.062C160.585,244.164 156.603,240.979 154.983,236.509C153.363,232.039 153.748,225.81 156.138,217.821L197.722,78.814C200.163,70.657 203.307,65.207 207.156,62.464C211.005,59.722 216.036,59.28 222.25,61.139L268.853,75.08C275.721,77.135 281.509,79.462 286.219,82.062C290.928,84.662 294.812,88.114 297.871,92.419C299.781,95.061 301.373,98.008 302.645,101.262C308.121,96.725 314.676,93.201 322.309,90.689C330.334,88.049 339.193,86.729 348.887,86.729C358.739,86.729 367.677,88.066 375.702,90.74C383.727,93.413 390.6,97.223 396.32,102.169C402.041,107.115 406.391,112.996 409.371,119.814C412.35,126.631 413.84,134.15 413.84,142.371C413.84,150.525 412.33,158.044 409.311,164.928C406.292,171.812 401.922,177.727 396.201,182.673C393.836,184.718 391.281,186.566 388.535,188.216C394.287,188.865 399.699,189.972 404.774,191.536C413.448,194.209 420.877,198.019 427.061,202.965C433.245,207.911 437.947,213.792 441.168,220.61C444.389,227.427 445.999,234.946 445.999,243.167C445.999,251.321 444.367,258.84 441.103,265.724C437.84,272.609 433.116,278.524 426.932,283.47C420.749,288.416 413.362,292.208 404.774,294.849C396.185,297.489 386.523,298.809 375.788,298.809C366.602,298.809 358.215,297.814 350.626,295.825C352.631,297.156 354.175,298.734 355.258,300.559C357.814,304.866 358.291,310.984 356.687,318.914L347.337,365.156C344.572,378.831 341.427,389.143 337.9,396.094C334.468,402.98 329.943,408.614 324.325,412.994C318.707,417.375 312.327,420.275 305.187,421.695C298.046,423.115 290.361,422.992 282.13,421.328C264.572,417.778 252.395,409.504 245.599,396.508C238.803,383.511 237.639,365.968 242.105,343.879L248.78,310.866L199.985,301C193.009,299.589 188.061,296.82 185.143,292.693C182.224,288.565 181.288,283.912 182.336,278.734C183.432,273.312 186.098,269.304 190.336,266.707C194.573,264.111 200.141,263.51 207.039,264.905L338.266,291.439C333.369,289.201 328.936,286.495 324.965,283.319C318.738,278.34 314.015,272.458 310.794,265.674C307.573,258.89 305.963,251.388 305.963,243.167C305.963,234.879 307.595,227.293 310.858,220.409C314.122,213.525 318.803,207.643 324.901,202.764C327.643,200.57 330.646,198.603 333.909,196.861C329.828,196.197 325.962,195.243 322.309,194.002C314.444,191.329 307.63,187.502 301.87,182.523C296.11,177.544 291.74,171.662 288.76,164.878C288.277,163.777 287.832,162.657 287.427,161.517ZM322.884,351.116L327.793,326.842L275.118,316.191L270.209,340.465C268.492,348.961 267.918,356.236 268.489,362.289C269.06,368.342 271.003,373.262 274.317,377.048C277.631,380.834 282.462,383.369 288.811,384.653C296.415,386.19 303.074,385.136 308.788,381.491C314.93,377.343 319.629,367.218 322.884,351.116ZM410.7,243.167C410.7,232.005 407.544,223.317 401.231,217.101C394.919,210.885 386.437,207.777 375.788,207.777C368.917,207.777 362.862,209.164 357.623,211.938C352.384,214.711 348.347,218.805 345.513,224.219C342.679,229.633 341.262,235.949 341.262,243.167C341.262,250.319 342.657,256.568 345.449,261.915C348.24,267.262 352.234,271.355 357.43,274.196C362.626,277.037 368.745,278.457 375.788,278.457C386.437,278.457 394.919,275.332 401.231,269.083C407.544,262.834 410.7,254.195 410.7,243.167ZM233.291,176.447L202.975,167.378L186.824,221.366L218.121,230.729C237.809,236.619 250.382,230.439 255.841,212.191C258.634,202.856 258.108,195.324 254.264,189.593C250.42,183.862 243.429,179.48 233.291,176.447ZM381.185,142.371C381.185,131.209 378.265,122.52 372.425,116.305C366.585,110.089 358.739,106.981 348.887,106.981C342.53,106.981 336.929,108.368 332.082,111.141C327.236,113.915 323.501,118.009 320.879,123.423C318.257,128.836 316.946,135.153 316.946,142.371C316.946,149.522 318.237,155.772 320.82,161.119C323.402,166.466 327.097,170.559 331.903,173.4C336.71,176.24 342.371,177.661 348.887,177.661C358.739,177.661 366.585,174.536 372.425,168.287C378.265,162.038 381.185,153.399 381.185,142.371ZM225.314,92.702L211.012,140.51L237.699,148.493C244.959,150.665 250.832,151.46 255.317,150.878C259.802,150.296 263.834,147.837 267.411,143.501C270.103,140.459 272.103,136.751 273.411,132.378C276.203,123.044 275.475,116.069 271.226,111.453C266.977,106.838 259.555,102.946 248.959,99.776L225.314,92.702Z" style="fill:rgb(255,254,216);fill-opacity:0.73;fill-rule:nonzero;"/>
            </g>
        </g>
    </g>
    <defs>
        <radialGradient id="_Radial1" cx="0" cy="0" r="1" gradientUnits="userSpaceOnUse" gradientTransform="matrix(-336.572,-353.755,353.755,-336.572,381.708,399.39)"><stop offset="0" style="stop-color:rgb(255,242,155);stop-opacity:0.73"/><stop offset="0.46" style="stop-color:rgb(254,236,111);stop-opacity:0.73"/><stop offset="1" style="stop-color:rgb(251,220,0);stop-opacity:0.73"/></radialGradient>
    </defs>
</svg>
