<?xml version="1.0" encoding="UTF-8" standalone="no"?>
<!DOCTYPE svg PUBLIC "-//W3C//DTD SVG 1.1//EN" "http://www.w3.org/Graphics/SVG/1.1/DTD/svg11.dtd">
<svg width="100%" height="100%" viewBox="0 0 304 256" version="1.1" xmlns="http://www.w3.org/2000/svg" xmlns:xlink="http://www.w3.org/1999/xlink" xml:space="preserve" xmlns:serif="http://www.serif.com/" style="fill-rule:evenodd;clip-rule:evenodd;stroke-linejoin:round;stroke-miterlimit:2;">
    <g id="Artboard1" transform="matrix(0.379753,0,0,0.425572,0,0)">
        <rect x="0" y="0" width="800" height="600" style="fill:rgb(252,255,100);fill-opacity:0;"/>
        <g transform="matrix(2.00117,0,0,2.38078,-244.121,-414.235)">
            <g transform="matrix(1.19578,0,0,0.8969,-19.7642,9.41484)">
                <path d="M261.458,416.484L261.458,334.485L292.39,334.485C297.834,334.485 301.991,334.746 304.863,335.268C308.89,335.94 312.265,337.217 314.987,339.1C317.709,340.983 319.899,343.621 321.559,347.014C323.218,350.408 324.048,354.137 324.048,358.201C324.048,365.174 321.829,371.075 317.392,375.904C312.954,380.733 304.937,383.147 293.34,383.147L272.309,383.147L272.309,416.484L261.458,416.484ZM272.309,373.471L293.508,373.471C300.519,373.471 305.497,372.166 308.442,369.556C311.388,366.945 312.861,363.272 312.861,358.537C312.861,355.106 311.994,352.17 310.26,349.727C308.526,347.285 306.242,345.672 303.408,344.889C301.581,344.404 298.207,344.162 293.284,344.162L272.309,344.162L272.309,373.471ZM191.774,363.238L168.943,284.482L198.49,275.916C204.507,274.172 209.564,273.57 213.661,274.11C217.758,274.65 221.316,276.277 224.336,278.993C227.356,281.709 229.39,284.876 230.439,288.493C231.415,291.859 231.42,295.294 230.455,298.796C229.491,302.298 227.429,305.497 224.269,308.393C229.437,308.409 233.79,309.729 237.327,312.353C240.863,314.977 243.296,318.581 244.625,323.166C245.695,326.854 245.91,330.509 245.271,334.131C244.632,337.752 243.415,340.754 241.621,343.138C239.828,345.521 237.33,347.653 234.128,349.532C230.927,351.412 226.819,353.078 221.805,354.532L191.774,363.238ZM324.048,317.434C324.048,303.824 327.702,293.169 335.011,285.468C342.319,277.768 351.754,273.918 363.313,273.918C370.883,273.918 377.707,275.727 383.785,279.344C389.863,282.961 394.496,288.004 397.684,294.474C400.872,300.943 402.466,308.28 402.466,316.484C402.466,324.799 400.788,332.238 397.432,338.801C394.076,345.364 389.322,350.333 383.169,353.707C377.017,357.082 370.379,358.769 363.257,358.769C355.538,358.769 348.64,356.905 342.562,353.176C336.484,349.447 331.879,344.357 328.746,337.906C325.614,331.455 324.048,324.631 324.048,317.434ZM199.502,350.922L219.11,345.238C222.477,344.262 224.804,343.451 226.093,342.806C228.368,341.681 230.166,340.383 231.487,338.913C232.807,337.443 233.709,335.599 234.193,333.382C234.676,331.165 234.554,328.803 233.827,326.296C232.976,323.359 231.484,321.025 229.352,319.295C227.219,317.564 224.692,316.647 221.769,316.543C218.847,316.439 214.878,317.114 209.864,318.567L191.653,323.847L199.502,350.922ZM335.235,317.602C335.235,327.484 337.891,335.268 343.205,340.954C348.519,346.641 355.184,349.484 363.201,349.484C371.367,349.484 378.089,346.613 383.365,340.87C388.642,335.128 391.28,326.98 391.28,316.428C391.28,309.753 390.152,303.926 387.896,298.948C385.64,293.97 382.34,290.111 377.996,287.37C373.651,284.629 368.776,283.259 363.369,283.259C355.688,283.259 349.078,285.897 343.541,291.174C338.003,296.45 335.235,305.26 335.235,317.602ZM245.629,275.009C245.629,261.398 249.284,250.743 256.592,243.043C263.901,235.343 273.335,231.493 284.894,231.493C292.464,231.493 299.288,233.301 305.366,236.918C311.444,240.535 316.077,245.579 319.266,252.048C322.454,258.518 324.048,265.854 324.048,274.058C324.048,282.373 322.37,289.813 319.014,296.375C315.658,302.938 310.904,307.907 304.751,311.282C298.598,314.656 291.961,316.344 284.839,316.344C277.12,316.344 270.221,314.479 264.143,310.75C258.065,307.021 253.46,301.932 250.328,295.481C247.195,289.03 245.629,282.206 245.629,275.009ZM188.959,314.553L205.988,309.616C210.608,308.277 213.833,307.012 215.662,305.822C218.084,304.265 219.701,302.379 220.515,300.163C221.328,297.948 221.336,295.461 220.536,292.703C219.778,290.089 218.484,287.969 216.655,286.345C214.825,284.721 212.64,283.879 210.099,283.819C207.558,283.76 203.458,284.551 197.8,286.191L182.059,290.754L188.959,314.553ZM256.816,275.177C256.816,285.058 259.473,292.842 264.786,298.529C270.1,304.215 276.765,307.059 284.783,307.059C292.949,307.059 299.67,304.188 304.947,298.445C310.223,292.703 312.861,284.555 312.861,274.002C312.861,267.327 311.733,261.501 309.477,256.523C307.221,251.545 303.921,247.685 299.577,244.945C295.233,242.204 290.357,240.834 284.95,240.834C277.269,240.834 270.659,243.472 265.122,248.748C259.585,254.025 256.816,262.834 256.816,275.177Z" style="fill:white;fill-rule:nonzero;"/>
            </g>
            <g transform="matrix(1.19578,0,0,0.8969,0,0)">
                <path d="M210.266,266.606C207.012,265.26 203.546,264.343 199.867,263.858C193.468,263.015 185.53,263.589 176.134,266.313C176.134,266.313 146.588,274.879 146.588,274.879C135.486,278.097 129.096,289.705 132.314,300.806L155.146,379.562C158.364,390.663 169.972,397.053 181.073,393.835L211.104,385.129C216.049,383.695 220.34,382.062 224.002,380.293L224.002,426.981C224.002,438.539 233.372,447.909 244.93,447.909L255.781,447.909C267.339,447.909 276.709,438.539 276.709,426.981L276.709,414.572C276.709,414.572 276.812,414.572 276.812,414.572C296.145,414.572 308.876,408.612 316.273,400.561C320.183,396.307 323.178,391.607 325.211,386.444C331.844,388.924 339.011,390.194 346.729,390.194C357.453,390.194 367.442,387.635 376.705,382.553C386.526,377.167 394.181,369.301 399.537,358.826C404.331,349.452 406.866,338.858 406.866,326.981C406.866,315.318 404.461,304.918 399.928,295.72C394.895,285.506 387.555,277.567 377.959,271.856C368.695,266.344 358.322,263.487 346.785,263.487C339.397,263.487 332.593,264.556 326.357,266.658C325.207,261.948 323.58,257.496 321.51,253.294C316.476,243.08 309.136,235.141 299.54,229.431C290.277,223.918 279.903,221.062 268.366,221.062C250.56,221.062 236.143,227.271 224.885,239.133C217.893,246.498 212.885,255.609 210.266,266.606ZM244.93,426.981L244.93,344.982L275.861,344.982C281.305,344.982 285.463,345.243 288.334,345.765C292.362,346.437 295.736,347.714 298.458,349.597C301.18,351.48 303.371,354.118 305.031,357.511C306.69,360.905 307.52,364.634 307.52,368.698C307.52,375.671 305.301,381.572 300.864,386.401C296.426,391.23 288.409,393.644 276.812,393.644L255.781,393.644L255.781,426.981L244.93,426.981ZM255.781,383.968L276.98,383.968C283.99,383.968 288.968,382.663 291.914,380.053C294.86,377.442 296.333,373.769 296.333,369.034C296.333,365.603 295.466,362.667 293.732,360.224C291.998,357.782 289.714,356.169 286.88,355.386C285.053,354.901 281.678,354.659 276.756,354.659L255.781,354.659L255.781,383.968ZM175.246,373.735L152.415,294.979L181.962,286.413C187.978,284.669 193.035,284.067 197.132,284.607C201.23,285.147 204.788,286.774 207.808,289.49C210.828,292.206 212.862,295.373 213.91,298.99C214.886,302.356 214.892,305.791 213.927,309.293C212.962,312.795 210.9,315.994 207.741,318.89C212.909,318.906 217.262,320.226 220.798,322.85C224.335,325.474 226.768,329.078 228.097,333.663C229.166,337.351 229.381,341.007 228.742,344.628C228.103,348.249 226.887,351.251 225.093,353.635C223.299,356.019 220.802,358.15 217.6,360.029C214.398,361.909 210.29,363.575 205.276,365.029L175.246,373.735ZM307.52,327.931C307.52,314.321 311.174,303.666 318.483,295.966C325.791,288.265 335.225,284.415 346.785,284.415C354.354,284.415 361.178,286.224 367.256,289.841C373.335,293.458 377.968,298.501 381.156,304.971C384.344,311.44 385.938,318.777 385.938,326.981C385.938,335.296 384.26,342.735 380.904,349.298C377.548,355.861 372.794,360.83 366.641,364.204C360.489,367.579 353.851,369.266 346.729,369.266C339.01,369.266 332.112,367.402 326.034,363.673C319.955,359.944 315.35,354.854 312.218,348.403C309.086,341.952 307.52,335.128 307.52,327.931ZM182.974,361.419L202.582,355.735C205.949,354.759 208.276,353.948 209.564,353.303C211.839,352.178 213.637,350.88 214.958,349.41C216.279,347.94 217.181,346.096 217.664,343.879C218.147,341.662 218.026,339.3 217.299,336.793C216.448,333.856 214.956,331.522 212.823,329.792C210.691,328.061 208.163,327.144 205.241,327.04C202.318,326.936 198.35,327.611 193.336,329.064L175.125,334.344L182.974,361.419ZM318.706,328.099C318.706,337.981 321.363,345.765 326.677,351.451C331.99,357.138 338.656,359.981 346.673,359.981C354.839,359.981 361.561,357.11 366.837,351.368C372.113,345.625 374.752,337.477 374.752,326.925C374.752,320.25 373.624,314.424 371.368,309.446C369.112,304.467 365.812,300.608 361.467,297.867C357.123,295.127 352.248,293.756 346.841,293.756C339.159,293.756 332.55,296.394 327.012,301.671C321.475,306.947 318.706,315.757 318.706,328.099ZM229.101,285.506C229.101,271.896 232.755,261.24 240.064,253.54C247.373,245.84 256.807,241.99 268.366,241.99C275.936,241.99 282.76,243.798 288.838,247.415C294.916,251.032 299.549,256.076 302.737,262.545C305.925,269.015 307.52,276.352 307.52,284.555C307.52,292.871 305.842,300.31 302.486,306.873C299.13,313.435 294.375,318.404 288.223,321.779C282.07,325.153 275.432,326.841 268.31,326.841C260.591,326.841 253.693,324.976 247.615,321.247C241.537,317.519 236.932,312.429 233.799,305.978C230.667,299.527 229.101,292.703 229.101,285.506ZM172.43,325.05L189.46,320.113C194.08,318.774 197.305,317.509 199.134,316.319C201.556,314.762 203.173,312.876 203.987,310.66C204.8,308.445 204.807,305.958 204.008,303.2C203.25,300.586 201.956,298.466 200.126,296.842C198.297,295.218 196.111,294.376 193.571,294.317C191.03,294.257 186.93,295.048 181.271,296.688L165.531,301.251L172.43,325.05ZM240.288,285.674C240.288,295.555 242.945,303.339 248.258,309.026C253.572,314.713 260.237,317.556 268.254,317.556C276.421,317.556 283.142,314.685 288.418,308.942C293.695,303.2 296.333,295.052 296.333,284.499C296.333,277.824 295.205,271.998 292.949,267.02C290.693,262.042 287.393,258.183 283.049,255.442C278.705,252.701 273.829,251.331 268.422,251.331C260.741,251.331 254.131,253.969 248.594,259.245C243.056,264.522 240.288,273.331 240.288,285.674Z" style="fill:white;fill-opacity:0.18;"/>
            </g>
        </g>
    </g>
</svg>
