<?xml version="1.0" encoding="UTF-8" standalone="no"?>
<!DOCTYPE svg PUBLIC "-//W3C//DTD SVG 1.1//EN" "http://www.w3.org/Graphics/SVG/1.1/DTD/svg11.dtd">
<svg width="100%" height="100%" viewBox="0 0 1080 624" version="1.1" xmlns="http://www.w3.org/2000/svg" xmlns:xlink="http://www.w3.org/1999/xlink" xml:space="preserve" xmlns:serif="http://www.serif.com/" style="fill-rule:evenodd;clip-rule:evenodd;stroke-linejoin:round;stroke-miterlimit:2;">
    <g id="Artboard1" transform="matrix(0.719729,0,0,0.593776,0,0)">
        <rect x="0" y="0" width="1500" height="1050" style="fill:none;"/>
        <g transform="matrix(3.13738,0,0,3.80289,-948.831,-1229.43)">
            <path d="M432.391,393.758C427.208,391.219 421.706,389.597 415.883,388.899C409.907,388.183 404.052,388.456 398.318,389.697C391.681,391.095 385.244,393.799 379.05,397.897C373.901,401.303 368.275,405.816 362.21,411.485C362.21,411.485 325.791,445.527 325.791,445.527C317.279,453.483 313.827,461.651 313.579,469.018C313.332,476.343 316.245,484.792 324.323,493.433C324.323,493.433 403.3,577.927 403.3,577.927C411.144,586.318 419.179,589.855 426.436,590.271C433.858,590.696 442.434,587.881 451.197,579.691C451.197,579.691 485.546,547.584 485.546,547.584C492.019,541.534 497.37,535.907 501.624,530.728C506.439,524.866 510.094,519.048 512.672,513.326C512.709,513.244 512.745,513.162 512.78,513.08C514.877,508.191 516.246,503.221 516.877,498.169C517.59,501.726 518.501,505.186 519.602,508.55C522.927,518.704 527.897,527.361 534.404,534.584C541.034,541.942 549.27,547.691 559.178,551.735C568.563,555.564 579.173,557.566 591.042,557.566C602.964,557.566 613.525,555.609 622.759,551.887C632.549,547.942 640.782,542.212 647.503,534.76C654.081,527.467 659.05,518.873 662.339,508.935C663.314,505.988 664.14,502.938 664.813,499.784L678.169,522.918C683.488,532.13 690.161,537.335 697.203,539.62C705.292,542.245 713.395,541.472 721.452,536.82C729.174,532.362 733.909,525.851 735.772,517.375C737.386,510.033 736.228,501.558 730.857,492.256C730.857,492.256 716.527,467.435 716.527,467.435C716.527,467.435 728.35,460.609 728.35,460.609C748.639,448.896 760.888,435.261 766.188,420.757C771.924,405.058 770.227,388.116 759.824,370.098C755.114,361.939 749.491,355.411 743.08,350.408C736.21,345.048 728.641,341.553 720.398,339.872C712.237,338.208 703.851,338.434 695.242,340.652C687.878,342.504 678.243,346.678 666.489,353.464C666.489,353.464 631.86,373.457 631.86,373.457C621.785,379.274 616.402,386.34 614.268,393.329C613.519,395.783 613.11,398.445 613.139,401.296C606.201,399.542 598.668,398.643 590.531,398.643C579.086,398.643 568.866,400.493 559.844,404.027C559.936,402.323 559.983,400.59 559.983,398.825C559.983,385.836 557.464,374.558 552.72,364.929C547.54,354.414 539.897,346.315 529.814,340.611C520.325,335.243 509.01,332.371 495.779,332.371C486.08,332.371 477.435,333.975 469.814,337.006C461.681,340.241 454.8,344.939 449.131,351.039C443.587,357.006 439.298,364.205 436.375,372.702C434.142,379.192 432.795,386.208 432.391,393.758ZM475.375,536.703L441.026,568.81C436.067,573.444 431.488,575.641 427.289,575.4C423.089,575.16 418.72,572.611 414.181,567.756L335.204,483.262C330.57,478.304 328.323,473.724 328.465,469.521C328.607,465.318 331.106,460.947 335.962,456.408L372.381,422.366C377.748,417.349 382.71,413.334 387.267,410.319C391.824,407.305 396.546,405.286 401.431,404.263C405.57,403.363 409.797,403.172 414.111,403.688C418.425,404.205 422.492,405.432 426.313,407.367C430.134,409.303 433.573,411.907 436.631,415.178C447.142,426.423 449.212,439.908 442.84,455.633C462.007,446.528 477.946,448.774 490.655,462.37C496.531,468.658 500.213,475.824 501.699,483.868C503.185,491.913 502.316,499.693 499.092,507.208C497.005,511.84 494.013,516.528 490.115,521.273C486.218,526.017 481.304,531.161 475.375,536.703ZM427.033,488.366L403.341,510.511L434.014,543.327L458.473,520.465C473.859,506.084 476.367,493.347 466,482.255C460.696,476.582 454.857,474.33 448.481,475.501C442.105,476.672 434.956,480.96 427.033,488.366ZM590.531,413.537C603.478,413.537 614.594,416.164 623.879,421.417C633.164,426.67 640.191,434.137 644.961,443.819C649.731,453.502 652.116,464.873 652.116,477.934C652.116,487.588 650.81,496.362 648.198,504.255C645.586,512.149 641.668,518.991 636.443,524.784C631.219,530.576 624.802,535.005 617.192,538.072C609.583,541.138 600.866,542.672 591.042,542.672C581.274,542.672 572.529,541.096 564.806,537.944C557.083,534.793 550.638,530.349 545.47,524.613C540.302,518.878 536.398,511.978 533.757,503.914C531.117,495.851 529.797,487.134 529.797,477.764C529.797,468.167 531.174,459.365 533.928,451.358C536.682,443.351 540.671,436.536 545.896,430.914C551.12,425.292 557.48,420.991 564.976,418.009C572.472,415.028 580.99,413.537 590.531,413.537ZM720.903,447.71L696.18,461.983L717.958,499.703C721.071,505.096 722.16,509.921 721.225,514.177C720.289,518.434 717.882,521.682 714.004,523.921C709.944,526.265 705.876,526.775 701.8,525.453C697.724,524.13 694.147,520.802 691.068,515.47L631.771,412.764C628.342,406.825 627.257,401.797 628.514,397.678C629.771,393.558 633.369,389.785 639.307,386.356L673.937,366.363C684.177,360.451 692.509,356.69 698.933,355.082C705.261,353.449 711.424,353.243 717.422,354.466C723.42,355.689 728.918,358.251 733.917,362.151C738.916,366.052 743.252,371.183 746.925,377.546C754.762,391.119 756.519,403.818 752.198,415.645C747.877,427.471 737.445,438.159 720.903,447.71ZM626.477,477.764C626.477,468.621 625,460.699 622.048,453.998C619.095,447.298 614.878,442.229 609.398,438.794C603.918,435.358 597.629,433.64 590.531,433.64C585.476,433.64 580.806,434.591 576.518,436.494C572.231,438.396 568.54,441.164 565.445,444.799C562.35,448.433 559.908,453.076 558.119,458.726C556.33,464.376 555.436,470.722 555.436,477.764C555.436,484.862 556.33,491.279 558.119,497.015C559.908,502.75 562.435,507.506 565.7,511.283C568.966,515.059 572.714,517.884 576.944,519.758C581.175,521.632 585.817,522.569 590.871,522.569C597.345,522.569 603.294,520.951 608.717,517.714C614.14,514.477 618.456,509.48 621.664,502.722C624.873,495.964 626.477,487.645 626.477,477.764ZM437.204,499.247C442.484,494.312 446.922,490.931 451.171,490.151C452.718,489.867 453.831,491.05 455.118,492.426C460.033,497.685 455.596,502.766 448.302,509.584C448.302,509.584 434.725,522.274 434.725,522.274C434.725,522.274 424.393,511.221 424.393,511.221C424.393,511.221 437.204,499.247 437.204,499.247ZM611.582,477.764C611.582,485.101 610.591,491.316 608.209,496.334C606.401,500.141 604.139,503.1 601.083,504.924C597.982,506.775 594.573,507.674 590.871,507.674C588.01,507.674 585.371,507.2 582.977,506.14C580.703,505.132 578.722,503.57 576.967,501.54C574.929,499.183 573.455,496.16 572.338,492.58C570.962,488.168 570.331,483.224 570.331,477.764C570.331,472.388 570.954,467.535 572.319,463.221C573.438,459.689 574.85,456.728 576.785,454.456C578.401,452.558 580.32,451.102 582.559,450.108C584.995,449.028 587.659,448.535 590.531,448.535C594.642,448.535 598.313,449.424 601.486,451.413C604.545,453.331 606.769,456.265 608.418,460.005C610.621,465.005 611.582,470.942 611.582,477.764ZM360.914,465.121L388.076,494.18L408.931,474.686C414.605,469.383 418.486,464.749 420.575,460.785C422.664,456.821 423.117,452.567 421.934,448.022C421.205,444.681 419.599,441.681 417.114,439.023C411.811,433.35 406.268,431.467 400.486,433.376C394.704,435.285 387.673,440.109 379.392,447.849L360.914,465.121ZM515.908,463.062C514.114,463.552 512.268,463.972 510.371,464.321C512.288,467.808 513.806,471.456 514.932,475.26C515.024,471.061 515.35,466.995 515.908,463.062ZM404.548,447.74C405.002,448.084 405.765,448.694 406.233,449.194C406.794,449.795 407.217,450.441 407.381,451.197C407.424,451.39 407.47,451.583 407.52,451.775C407.71,452.508 407.735,453.202 407.398,453.841C405.879,456.724 402.886,459.948 398.76,463.805C398.76,463.805 388.786,473.127 388.786,473.127L381.966,465.831L389.563,458.73C395.491,453.19 400.345,449.325 404.548,447.74ZM495.779,347.266C506.146,347.266 515.046,349.369 522.48,353.574C529.913,357.78 535.54,363.759 539.359,371.511C543.178,379.263 545.088,388.368 545.088,398.825C545.088,406.555 544.042,413.58 541.951,419.899C539.859,426.219 536.722,431.698 532.539,436.336C528.356,440.973 523.218,444.52 517.126,446.975C511.033,449.43 504.054,450.658 496.188,450.658C488.368,450.658 481.366,449.396 475.182,446.873C468.999,444.349 463.838,440.792 459.701,436.199C455.563,431.607 452.438,426.083 450.323,419.627C448.209,413.17 447.152,406.191 447.152,398.689C447.152,391.005 448.255,383.958 450.46,377.547C452.665,371.136 455.859,365.68 460.042,361.179C464.225,356.678 469.317,353.233 475.319,350.846C481.32,348.459 488.141,347.266 495.779,347.266ZM679.095,390.41L660.917,400.905L684.426,441.624L702.604,431.129C708.966,427.455 713.899,423.719 717.401,419.92C720.903,416.12 722.901,412.058 723.393,407.734C723.886,403.41 722.716,398.794 719.882,393.886C716.489,388.008 711.998,384.219 706.41,382.516C700.258,380.817 691.153,383.448 679.095,390.41ZM524.56,398.689C524.56,391.369 523.378,385.026 521.013,379.661C518.649,374.296 515.273,370.238 510.885,367.487C506.498,364.737 501.462,363.361 495.779,363.361C491.732,363.361 487.993,364.123 484.56,365.646C481.127,367.169 478.172,369.386 475.694,372.295C473.216,375.205 471.261,378.922 469.829,383.446C468.396,387.97 467.68,393.051 467.68,398.689C467.68,404.372 468.396,409.51 469.829,414.102C471.261,418.695 473.284,422.502 475.899,425.526C478.513,428.55 481.514,430.812 484.901,432.312C488.288,433.812 492.005,434.563 496.052,434.563C501.235,434.563 505.998,433.267 510.34,430.675C514.682,428.084 518.137,424.082 520.706,418.672C523.275,413.261 524.56,406.6 524.56,398.689ZM686.542,403.309C691.326,400.547 695.49,398.568 699.102,397.524C700.383,397.154 701.417,396.674 702.299,396.84C704.306,397.537 705.739,399.179 706.983,401.333C707.971,403.045 708.766,404.54 708.594,406.048C708.437,407.431 707.569,408.609 706.449,409.825C703.793,412.706 699.981,415.444 695.157,418.23C695.157,418.23 689.878,421.277 689.878,421.277C689.878,421.277 681.263,406.357 681.263,406.357C681.263,406.357 686.542,403.309 686.542,403.309ZM509.665,398.689C509.665,404.056 508.994,408.613 507.251,412.283C506.083,414.744 504.681,416.707 502.706,417.885C500.686,419.091 498.463,419.668 496.052,419.668C494.198,419.668 492.485,419.381 490.933,418.693C489.503,418.06 488.269,417.061 487.166,415.784C485.778,414.179 484.808,412.105 484.048,409.668C483.029,406.399 482.575,402.734 482.575,398.689C482.575,394.717 483.02,391.129 484.029,387.942C484.791,385.536 485.716,383.5 487.034,381.952C488.033,380.779 489.217,379.875 490.601,379.261C492.182,378.559 493.915,378.256 495.779,378.256C498.475,378.256 500.892,378.802 502.974,380.107C504.94,381.34 506.324,383.263 507.383,385.668C508.998,389.332 509.665,393.689 509.665,398.689Z" style="fill:white;fill-opacity:0.42;"/>
        </g>
    </g>
</svg>
