<?xml version="1.0" encoding="UTF-8" standalone="no"?>
<!DOCTYPE svg PUBLIC "-//W3C//DTD SVG 1.1//EN" "http://www.w3.org/Graphics/SVG/1.1/DTD/svg11.dtd">
<svg width="100%" height="100%" viewBox="0 0 425 483" version="1.1" xmlns="http://www.w3.org/2000/svg" xmlns:xlink="http://www.w3.org/1999/xlink" xml:space="preserve" xmlns:serif="http://www.serif.com/" style="fill-rule:evenodd;clip-rule:evenodd;stroke-linejoin:round;stroke-miterlimit:2;">
    <g id="Artboard1" transform="matrix(0.707695,0,0,0.80448,0,0)">
        <rect x="0" y="0" width="600" height="600" style="fill:none;"/>
        <g transform="matrix(1.27448,0,0,1.12115,29.4209,29.4203)">
            <path d="M69.957,265.192C65.986,269.649 63.258,275.229 61.887,282.009C59.851,292.079 61.775,301.107 67.451,309.133C72.619,316.442 81.033,321.95 93.387,324.448C93.387,324.448 136.249,333.115 136.249,333.115C136.249,333.115 131.288,357.651 131.288,357.651C125.307,387.229 127.568,410.67 136.668,428.072C146.42,446.724 163.571,459.071 188.769,464.166C200.301,466.498 211.07,466.59 221.075,464.601C231.574,462.513 240.946,458.234 249.207,451.793C257.34,445.451 263.934,437.331 268.904,427.364C273.388,418.509 277.54,405.385 281.069,387.936C281.069,387.936 291.925,334.243 291.925,334.243C292.817,329.834 293.236,325.762 293.242,322.021C295.556,322.13 297.911,322.183 300.307,322.183C314.307,322.183 326.9,320.407 338.1,316.964C349.888,313.34 359.997,308.078 368.485,301.289C377.388,294.168 384.167,285.634 388.866,275.723C393.529,265.886 395.907,255.152 395.907,243.501C395.907,231.76 393.549,221.033 388.949,211.297C384.304,201.466 377.552,192.961 368.634,185.829C361.625,180.223 353.469,175.64 344.132,172.153C347.282,167.888 349.945,163.272 352.122,158.308C356.386,148.587 358.566,137.978 358.566,126.463C358.566,114.859 356.405,104.257 352.199,94.634C347.894,84.785 341.619,76.281 333.354,69.135C325.384,62.244 315.838,56.883 304.657,53.159C294.005,49.61 282.149,47.781 269.072,47.781C256.209,47.781 244.462,49.581 233.813,53.084C228.954,54.682 224.413,56.587 220.187,58.791C215.604,52.772 209.911,47.87 203.108,44.114C196.884,40.678 189.252,37.56 180.175,34.845C180.175,34.845 126.063,18.657 126.063,18.657C113.785,14.984 103.941,16.799 96.336,22.218C90.01,26.725 84.075,35.224 80.065,48.63C80.065,48.63 31.779,210.037 31.779,210.037C27.88,223.071 28.047,233.273 30.69,240.566C33.909,249.447 41.156,256.576 53.761,260.346L69.957,265.192ZM133.538,274.64L104.367,268.742C96.357,267.122 89.893,267.82 84.972,270.834C80.052,273.849 76.956,278.504 75.683,284.799C74.467,290.812 75.554,296.214 78.943,301.007C82.332,305.799 88.076,309.015 96.177,310.652L152.834,322.108L145.084,360.441C139.897,386.09 141.25,406.46 149.141,421.55C157.031,436.641 171.171,446.248 191.558,450.37C201.115,452.303 210.039,452.445 218.33,450.796C226.621,449.148 234.029,445.78 240.552,440.694C247.075,435.607 252.329,429.066 256.314,421.071C260.409,412.999 264.062,401.025 267.273,385.147L278.129,331.453C279.991,322.246 279.438,315.142 276.47,310.141C275.212,308.022 273.419,306.189 271.092,304.644C279.904,306.954 289.642,308.108 300.307,308.108C312.773,308.108 323.992,306.576 333.964,303.51C343.937,300.445 352.513,296.041 359.693,290.298C366.873,284.555 372.358,277.687 376.148,269.693C379.937,261.7 381.832,252.969 381.832,243.501C381.832,233.955 379.962,225.225 376.223,217.309C372.483,209.393 367.023,202.564 359.843,196.821C352.663,191.078 344.037,186.654 333.964,183.55C328.072,181.734 321.787,180.449 315.109,179.696C318.298,177.779 321.264,175.634 324.01,173.26C330.653,167.517 335.727,160.649 339.233,152.655C342.738,144.662 344.491,135.931 344.491,126.463C344.491,116.917 342.762,108.187 339.302,100.271C335.842,92.355 330.791,85.526 324.149,79.783C317.506,74.04 309.526,69.616 300.208,66.512C290.89,63.408 280.511,61.856 269.072,61.856C257.816,61.856 247.53,63.388 238.212,66.454C232.952,68.184 228.132,70.329 223.753,72.889L250.744,76.672L268.157,85.379C268.461,85.373 268.765,85.37 269.072,85.37C280.511,85.37 289.622,88.979 296.403,96.196C297.939,97.832 299.302,99.615 300.49,101.546L332.744,117.672L321.243,160.245L309.243,184.745L341.743,204.745L363.243,258.245L314.243,291.745L264.743,296.245L254.743,347.745L239.243,412.745L191.243,434.745L168.243,378.745L171.743,326.245L142.243,303.245L133.538,274.64ZM211.655,71.193C211.079,70.253 210.473,69.343 209.836,68.463C206.284,63.464 201.774,59.455 196.305,56.436C190.837,53.417 184.116,50.715 176.142,48.33L122.029,32.142C114.814,29.983 108.972,30.496 104.503,33.681C100.034,36.865 96.383,43.193 93.549,52.664L45.264,214.071C42.489,223.347 42.042,230.58 43.923,235.771C45.804,240.961 50.428,244.658 57.795,246.862L108.831,262.13C117.144,264.616 124.626,266.31 131.276,267.21L128.243,257.245L64.744,228.172L66.744,212.672L90.244,128.172L103.744,65.672L138.244,56.172L197.244,69.172L211.655,71.193Z" style="fill:rgb(255,223,0);"/>
            <path d="M31.114,283.706C29.61,299.423 33.636,313.69 42.76,326.592C51.755,339.314 65.892,349.741 87.394,354.089L100.683,356.776C94.356,392.389 98.701,420.724 109.87,442.084C123.624,468.389 147.238,486.621 182.776,493.807C198.551,496.996 213.285,496.982 226.972,494.261C242.214,491.23 255.81,484.991 267.802,475.641C279.378,466.614 288.84,455.119 295.924,440.943C301.275,430.349 306.498,414.755 310.709,393.93L319.3,351.44C329.192,350.389 338.416,348.504 346.985,345.869C362.675,341.046 376.077,333.94 387.373,324.905C399.978,314.823 409.538,302.71 416.191,288.677C416.191,288.677 416.191,288.677 416.191,288.677C422.732,274.88 426.147,259.843 426.147,243.501C426.147,227.042 422.74,212.028 416.291,198.379C409.703,184.433 400.173,172.331 387.523,162.213C387.523,162.213 387.523,162.213 387.523,162.213C386.345,161.272 385.144,160.351 383.92,159.451C387.14,149.124 388.807,138.135 388.807,126.463C388.807,110.436 385.717,95.814 379.908,82.524C373.788,68.521 364.882,56.418 353.132,46.259C353.132,46.259 353.132,46.259 353.132,46.259C342.308,36.902 329.398,29.527 314.215,24.469C300.698,19.965 285.667,17.54 269.072,17.54C253.801,17.54 239.781,19.62 226.975,23.531C224.056,21.398 220.972,19.434 217.723,17.64C209.876,13.308 200.286,9.297 188.842,5.873C188.842,5.873 134.73,-10.314 134.73,-10.314C111.561,-17.246 93.14,-12.636 78.788,-2.411C68.466,4.944 57.637,18.087 51.093,39.963C51.093,39.963 2.808,201.37 2.808,201.37C-3.511,222.491 -2.024,239.052 2.26,250.87C7.038,264.054 15.974,275.804 31.114,283.706ZM69.957,265.192C65.986,269.649 63.258,275.229 61.887,282.009C59.851,292.079 61.775,301.107 67.451,309.133C72.619,316.442 81.033,321.95 93.387,324.448C93.387,324.448 136.249,333.115 136.249,333.115C136.249,333.115 131.288,357.651 131.288,357.651C125.307,387.229 127.568,410.67 136.668,428.072C146.42,446.724 163.571,459.071 188.769,464.166C200.301,466.498 211.07,466.59 221.075,464.601C231.574,462.513 240.946,458.234 249.207,451.793C257.34,445.451 263.934,437.331 268.904,427.364C273.388,418.509 277.54,405.385 281.069,387.936C281.069,387.936 291.925,334.243 291.925,334.243C292.817,329.834 293.236,325.762 293.242,322.021C295.556,322.13 297.911,322.183 300.307,322.183C314.307,322.183 326.9,320.407 338.1,316.964C349.888,313.34 359.997,308.078 368.485,301.289C377.388,294.168 384.167,285.634 388.866,275.723C393.529,265.886 395.907,255.152 395.907,243.501C395.907,231.76 393.549,221.033 388.949,211.297C384.304,201.466 377.552,192.961 368.634,185.829C361.625,180.223 353.469,175.64 344.132,172.153C347.282,167.888 349.945,163.272 352.122,158.308C356.386,148.587 358.566,137.978 358.566,126.463C358.566,114.859 356.405,104.257 352.199,94.634C347.894,84.785 341.619,76.281 333.354,69.135C325.384,62.244 315.838,56.883 304.657,53.159C294.005,49.61 282.149,47.781 269.072,47.781C256.209,47.781 244.462,49.581 233.813,53.084C228.954,54.682 224.413,56.587 220.187,58.791C215.604,52.772 209.911,47.87 203.108,44.114C196.884,40.678 189.252,37.56 180.175,34.845C180.175,34.845 126.063,18.657 126.063,18.657C113.785,14.984 103.941,16.799 96.336,22.218C90.01,26.725 84.075,35.224 80.065,48.63C80.065,48.63 31.779,210.037 31.779,210.037C27.88,223.071 28.047,233.273 30.69,240.566C33.909,249.447 41.156,256.576 53.761,260.346L69.957,265.192ZM133.538,274.64L104.367,268.742C96.357,267.122 89.893,267.82 84.972,270.834C80.052,273.849 76.956,278.504 75.683,284.799C74.467,290.812 75.554,296.214 78.943,301.007C82.332,305.799 88.076,309.015 96.177,310.652L152.834,322.108L145.084,360.441C139.897,386.09 141.25,406.46 149.141,421.55C157.031,436.641 171.171,446.248 191.558,450.37C201.115,452.303 210.039,452.445 218.33,450.796C226.621,449.148 234.029,445.78 240.552,440.694C247.075,435.607 252.329,429.066 256.314,421.071C260.409,412.999 264.062,401.025 267.273,385.147L278.129,331.453C279.991,322.246 279.438,315.142 276.47,310.141C275.212,308.022 273.419,306.189 271.092,304.644C279.904,306.954 289.642,308.108 300.307,308.108C312.773,308.108 323.992,306.576 333.964,303.51C343.937,300.445 352.513,296.041 359.693,290.298C366.873,284.555 372.358,277.687 376.148,269.693C379.937,261.7 381.832,252.969 381.832,243.501C381.832,233.955 379.962,225.225 376.223,217.309C372.483,209.393 367.023,202.564 359.843,196.821C352.663,191.078 344.037,186.654 333.964,183.55C328.072,181.734 321.787,180.449 315.109,179.696C318.298,177.779 321.264,175.634 324.01,173.26C330.653,167.517 335.727,160.649 339.233,152.655C342.738,144.662 344.491,135.931 344.491,126.463C344.491,116.917 342.762,108.187 339.302,100.271C335.842,92.355 330.791,85.526 324.149,79.783C317.506,74.04 309.526,69.616 300.208,66.512C290.89,63.408 280.511,61.856 269.072,61.856C257.816,61.856 247.53,63.388 238.212,66.454C232.952,68.184 228.132,70.329 223.753,72.889L250.744,76.672L268.157,85.379C268.461,85.373 268.765,85.37 269.072,85.37C280.511,85.37 289.622,88.979 296.403,96.196C297.939,97.832 299.302,99.615 300.49,101.546L332.744,117.672L321.243,160.245L309.243,184.745L341.743,204.745L363.243,258.245L314.243,291.745L264.743,296.245L254.743,347.745L239.243,412.745L191.243,434.745L168.243,378.745L171.743,326.245L142.243,303.245L133.538,274.64ZM211.655,71.193C211.079,70.253 210.473,69.343 209.836,68.463C206.284,63.464 201.774,59.455 196.305,56.436C190.837,53.417 184.116,50.715 176.142,48.33L122.029,32.142C114.814,29.983 108.972,30.496 104.503,33.681C100.034,36.865 96.383,43.193 93.549,52.664L45.264,214.071C42.489,223.347 42.042,230.58 43.923,235.771C45.804,240.961 50.428,244.658 57.795,246.862L108.831,262.13C117.144,264.616 124.626,266.31 131.276,267.21L128.243,257.245L64.744,228.172L66.744,212.672L90.244,128.172L103.744,65.672L138.244,56.172L197.244,69.172L211.655,71.193Z" style="fill:rgb(255,223,0);"/>
        </g>
        <g transform="matrix(1.47985,0,0,1.30181,-143.951,-14.1354)">
            <path d="M287.427,161.517C282.445,165.556 276.536,168.436 269.698,170.16C286.286,183.551 291.234,201.431 284.542,223.8C281.448,234.144 276.602,242.841 270.003,249.891C263.404,256.942 256.015,261.397 247.834,263.255C242.747,264.299 237.214,264.453 231.234,263.718C225.254,262.983 218.471,261.48 210.884,259.21L166.93,246.062C160.585,244.164 156.603,240.979 154.983,236.509C153.363,232.039 153.748,225.81 156.138,217.821L197.722,78.814C200.163,70.657 203.307,65.207 207.156,62.464C211.005,59.722 216.036,59.28 222.25,61.139L268.853,75.08C275.721,77.135 281.509,79.462 286.219,82.062C290.928,84.662 294.812,88.114 297.871,92.419C299.781,95.061 301.373,98.008 302.645,101.262C308.121,96.725 314.676,93.201 322.309,90.689C330.334,88.049 339.193,86.729 348.887,86.729C358.739,86.729 367.677,88.066 375.702,90.74C383.727,93.413 390.6,97.223 396.32,102.169C402.041,107.115 406.391,112.996 409.371,119.814C412.35,126.631 413.84,134.15 413.84,142.371C413.84,150.525 412.33,158.044 409.311,164.928C406.292,171.812 401.922,177.727 396.201,182.673C393.836,184.718 391.281,186.566 388.535,188.216C394.287,188.865 399.699,189.972 404.774,191.536C413.448,194.209 420.877,198.019 427.061,202.965C433.245,207.911 437.947,213.792 441.168,220.61C444.389,227.427 445.999,234.946 445.999,243.167C445.999,251.321 444.367,258.84 441.103,265.724C437.84,272.609 433.116,278.524 426.932,283.47C420.749,288.416 413.362,292.208 404.774,294.849C396.185,297.489 386.523,298.809 375.788,298.809C366.602,298.809 358.215,297.814 350.626,295.825C352.631,297.156 354.175,298.734 355.258,300.559C357.814,304.866 358.291,310.984 356.687,318.914L347.337,365.156C344.572,378.831 341.427,389.143 337.9,396.094C334.468,402.98 329.943,408.614 324.325,412.994C318.707,417.375 312.327,420.275 305.187,421.695C298.046,423.115 290.361,422.992 282.13,421.328C264.572,417.778 252.395,409.504 245.599,396.508C238.803,383.511 237.639,365.968 242.105,343.879L248.78,310.866L199.985,301C193.009,299.589 188.061,296.82 185.143,292.693C182.224,288.565 181.288,283.912 182.336,278.734C183.432,273.312 186.098,269.304 190.336,266.707C194.573,264.111 200.141,263.51 207.039,264.905L338.266,291.439C333.369,289.201 328.936,286.495 324.965,283.319C318.738,278.34 314.015,272.458 310.794,265.674C307.573,258.89 305.963,251.388 305.963,243.167C305.963,234.879 307.595,227.293 310.858,220.409C314.122,213.525 318.803,207.643 324.901,202.764C327.643,200.57 330.646,198.603 333.909,196.861C329.828,196.197 325.962,195.243 322.309,194.002C314.444,191.329 307.63,187.502 301.87,182.523C296.11,177.544 291.74,171.662 288.76,164.878C288.277,163.777 287.832,162.657 287.427,161.517ZM322.884,351.116L327.793,326.842L275.118,316.191L270.209,340.465C268.492,348.961 267.918,356.236 268.489,362.289C269.06,368.342 271.003,373.262 274.317,377.048C277.631,380.834 282.462,383.369 288.811,384.653C296.415,386.19 303.074,385.136 308.788,381.491C314.93,377.343 319.629,367.218 322.884,351.116ZM410.7,243.167C410.7,232.005 407.544,223.317 401.231,217.101C394.919,210.885 386.437,207.777 375.788,207.777C368.917,207.777 362.862,209.164 357.623,211.938C352.384,214.711 348.347,218.805 345.513,224.219C342.679,229.633 341.262,235.949 341.262,243.167C341.262,250.319 342.657,256.568 345.449,261.915C348.24,267.262 352.234,271.355 357.43,274.196C362.626,277.037 368.745,278.457 375.788,278.457C386.437,278.457 394.919,275.332 401.231,269.083C407.544,262.834 410.7,254.195 410.7,243.167ZM233.291,176.447L202.975,167.378L186.824,221.366L218.121,230.729C237.809,236.619 250.382,230.439 255.841,212.191C258.634,202.856 258.108,195.324 254.264,189.593C250.42,183.862 243.429,179.48 233.291,176.447ZM381.185,142.371C381.185,131.209 378.265,122.52 372.425,116.305C366.585,110.089 358.739,106.981 348.887,106.981C342.53,106.981 336.929,108.368 332.082,111.141C327.236,113.915 323.501,118.009 320.879,123.423C318.257,128.836 316.946,135.153 316.946,142.371C316.946,149.522 318.237,155.772 320.82,161.119C323.402,166.466 327.097,170.559 331.903,173.4C336.71,176.24 342.371,177.661 348.887,177.661C358.739,177.661 366.585,174.536 372.425,168.287C378.265,162.038 381.185,153.399 381.185,142.371ZM225.314,92.702L211.012,140.51L237.699,148.493C244.959,150.665 250.832,151.46 255.317,150.878C259.802,150.296 263.834,147.837 267.411,143.501C270.103,140.459 272.103,136.751 273.411,132.378C276.203,123.044 275.475,116.069 271.226,111.453C266.977,106.838 259.555,102.946 248.959,99.776L225.314,92.702Z" style="fill:white;fill-rule:nonzero;"/>
        </g>
    </g>
</svg>
