<?xml version="1.0" encoding="UTF-8" standalone="no"?>
<!DOCTYPE svg PUBLIC "-//W3C//DTD SVG 1.1//EN" "http://www.w3.org/Graphics/SVG/1.1/DTD/svg11.dtd">
<svg width="100%" height="100%" viewBox="0 0 1024 100" version="1.1" xmlns="http://www.w3.org/2000/svg" xmlns:xlink="http://www.w3.org/1999/xlink" xml:space="preserve" xmlns:serif="http://www.serif.com/" style="fill-rule:evenodd;clip-rule:evenodd;stroke-linejoin:round;stroke-miterlimit:2;">
    <g transform="matrix(0.591531,0,0,0.591531,-3.33127,-8.69309)">
        <text x="0px" y="112.709px" style="font-family:'BerlinSansFBDemi-Bold', 'Berlin Sans FB Demi', sans-serif;font-weight:700;font-size:139.011px;">Front-end web developer</text>
    </g>
    <g transform="matrix(0.980199,0.198016,-0.198016,0.980199,86.1993,-206.188)">
        <g transform="matrix(1.15989,0,0,1.15989,-147.137,-10.5882)">
            <path d="M920.226,45.953C928.645,32.442 945.484,32.442 953.904,39.197C962.324,45.953 962.324,59.465 953.904,72.977C948.01,83.11 932.855,93.244 920.226,100C907.596,93.244 892.441,83.11 886.547,72.977C878.128,59.465 878.128,45.953 886.547,39.197C894.967,32.442 911.806,32.442 920.226,45.953Z" style="fill:white;"/>
        </g>
        <path d="M920.226,45.953C928.645,32.442 945.484,32.442 953.904,39.197C962.324,45.953 962.324,59.465 953.904,72.977C948.01,83.11 932.855,93.244 920.226,100C907.596,93.244 892.441,83.11 886.547,72.977C878.128,59.465 878.128,45.953 886.547,39.197C894.967,32.442 911.806,32.442 920.226,45.953Z" style="fill:rgb(255,0,0);"/>
    </g>
</svg>
