<?xml version="1.0" encoding="UTF-8" standalone="no"?>
<!DOCTYPE svg PUBLIC "-//W3C//DTD SVG 1.1//EN" "http://www.w3.org/Graphics/SVG/1.1/DTD/svg11.dtd">
<svg width="100%" height="100%" viewBox="0 0 1891 750" version="1.1" xmlns="http://www.w3.org/2000/svg" xmlns:xlink="http://www.w3.org/1999/xlink" xml:space="preserve" xmlns:serif="http://www.serif.com/" style="fill-rule:evenodd;clip-rule:evenodd;stroke-linejoin:round;stroke-miterlimit:2;">
    <g id="Artboard1" transform="matrix(1.26005,0,0,0.714027,0,0)">
        <rect x="0" y="0" width="1500" height="1050" style="fill:none;"/>
        <clipPath id="_clip1">
            <rect x="0" y="0" width="1500" height="1050"/>
        </clipPath>
        <g clip-path="url(#_clip1)">
            <g transform="matrix(1,0,0,1,0,5.80928)">
                <g transform="matrix(1.3058,0,0,2.30436,-492.478,-617.912)">
                    <text x="372.31px" y="480.36px" style="font-family:'Poppins-Bold', 'Poppins';font-weight:700;font-size:302.295px;">AHMAD</text>
                </g>
                <g transform="matrix(0.793619,0,0,1.40051,0,-70.0254)">
                    <path d="M1890.08,425.34L0,425.34L0,791.432L1890.08,791.432L1890.08,425.34ZM1104.99,755.74L1033.2,755.74L913.132,573.962L913.132,755.74L841.344,755.74L841.344,461.033L913.132,461.033L1033.2,643.65L1033.2,461.033L1104.99,461.033L1104.99,755.74ZM715.401,703.683L605.411,703.683L587.779,755.74L512.633,755.74L619.265,461.033L702.387,461.033L809.019,755.74L733.033,755.74L715.401,703.683ZM1340.5,703.683L1230.51,703.683L1212.88,755.74L1137.73,755.74L1244.36,461.033L1327.49,461.033L1434.12,755.74L1358.13,755.74L1340.5,703.683ZM1649.9,703.683L1539.91,703.683L1522.28,755.74L1447.13,755.74L1553.76,461.033L1636.88,461.033L1743.52,755.74L1667.53,755.74L1649.9,703.683ZM480.307,461.033L480.307,755.74L408.52,755.74L408.52,578.999L342.61,755.74L284.676,755.74L218.346,578.58L218.346,755.74L146.558,755.74L146.558,461.033L231.36,461.033L314.063,665.061L395.926,461.033L480.307,461.033ZM696.93,648.268L660.406,540.377L624.302,648.268L696.93,648.268ZM1322.03,648.268L1285.5,540.377L1249.4,648.268L1322.03,648.268ZM1631.43,648.268L1594.9,540.377L1558.8,648.268L1631.43,648.268Z"/>
                </g>
            </g>
        </g>
    </g>
</svg>
