<?xml version="1.0" encoding="UTF-8" standalone="no"?>
<!DOCTYPE svg PUBLIC "-//W3C//DTD SVG 1.1//EN" "http://www.w3.org/Graphics/SVG/1.1/DTD/svg11.dtd">
<svg width="100%" height="100%" viewBox="0 0 1024 400" version="1.1" xmlns="http://www.w3.org/2000/svg" xmlns:xlink="http://www.w3.org/1999/xlink" xml:space="preserve" xmlns:serif="http://www.serif.com/" style="fill-rule:evenodd;clip-rule:evenodd;stroke-linejoin:round;stroke-miterlimit:2;">
    <g transform="matrix(2.02882,0,0,1.88164,-300.602,-380.522)">
        <text x="147.759px" y="300px" style="font-family:'BerlinSansFBDemi-Bold', 'Berlin Sans FB Demi', sans-serif;font-weight:700;font-size:139.011px;">AHMAD</text>
    </g>
    <g transform="matrix(1,0,0,1,0,-16.8081)">
        <path d="M1024,213.333L0,213.333L0,415.092L1024,415.092L1024,213.333ZM318.503,395.786C318.503,398.293 317.239,399.546 314.71,399.546L268.412,399.546C265.884,399.546 264.619,398.131 264.619,395.301C264.619,387.133 264.946,374.882 265.6,358.547C266.254,342.212 266.581,329.961 266.581,321.794C266.581,319.449 266.189,318.195 265.404,318.034C264.445,318.519 258.603,331.013 247.879,355.515C241.601,369.909 235.323,384.262 229.046,398.576C228.174,400.436 227.084,401.527 225.776,401.851C225.34,401.932 223.596,401.972 220.545,401.972C216.011,401.972 213.308,401.163 212.436,399.546C207.728,390.651 201.537,377.712 193.864,360.731C185.669,342.778 179.522,329.8 175.424,321.794C175.249,321.39 174.857,320.945 174.247,320.46C173.636,321.187 173.331,322.36 173.331,323.977C173.331,331.902 173.549,343.789 173.985,359.639C174.421,375.489 174.639,387.376 174.639,395.301C174.639,398.131 173.418,399.546 170.977,399.546L127.295,399.546C125.551,399.546 124.483,399.283 124.09,398.758C123.698,398.232 123.502,397.322 123.502,396.028C123.502,387.214 123.96,373.972 124.875,356.303C125.791,338.634 126.248,325.392 126.248,316.578C126.248,307.198 125.812,289.609 124.941,263.813C124.853,257.102 124.461,247.115 123.763,233.853L123.633,231.791C123.545,230.173 125.376,229.365 129.126,229.365C133.921,229.365 141.114,229.223 150.705,228.94C160.296,228.657 167.489,228.516 172.285,228.516C173.244,228.516 174.595,230.214 176.339,233.61L214.529,311.362C217.231,316.618 219.498,319.247 221.329,319.247C222.288,319.247 224.337,316.214 227.476,310.149C236.283,293.168 249.317,267.574 266.581,233.368C268.063,230.214 269.676,228.637 271.42,228.637C273.949,228.637 277.763,228.758 282.864,229.001C287.965,229.243 291.823,229.365 294.438,229.365C296.618,229.365 299.953,229.163 304.444,228.758C308.934,228.354 312.269,228.152 314.449,228.152C317.064,228.152 318.372,229.122 318.372,231.063C318.372,240.605 318.002,254.858 317.26,273.82C316.519,292.783 316.149,307.036 316.149,316.578C316.149,325.392 316.541,338.614 317.326,356.243C318.111,373.871 318.503,387.052 318.503,395.786ZM515.335,396.514C515.335,397.969 514.245,398.98 512.065,399.546C509.45,400.193 501.341,400.516 487.739,400.516C475.271,400.516 467.25,400.193 463.675,399.546C460.71,398.98 458.836,397.16 458.051,394.088C455.087,382.443 452.776,376.216 451.119,375.408C449.724,374.842 438.041,374.559 416.069,374.559C401.247,374.559 393.356,374.922 392.397,375.65C390.914,376.944 389.258,381.27 387.427,388.629C385.77,395.341 383.765,398.98 381.411,399.546C378.446,400.193 368.507,400.516 351.592,400.516C338.252,400.516 331.582,399.344 331.582,396.999C331.582,394.896 341.434,369.06 361.139,319.489C382.501,265.875 394.097,236.4 395.928,231.063C396.974,227.99 398.195,226.454 399.59,226.454C401.944,226.454 405.584,226.656 410.511,227.06C415.437,227.464 419.121,227.667 421.562,227.667C423.916,227.667 427.382,227.525 431.959,227.242C436.537,226.959 439.959,226.817 442.226,226.817C443.883,226.817 445.408,228.152 446.803,230.82C451.076,239.311 463.544,268.423 484.208,318.155C504.959,368.211 515.335,394.33 515.335,396.514ZM900.498,396.514C900.498,397.969 899.408,398.98 897.228,399.546C894.613,400.193 886.504,400.516 872.902,400.516C860.434,400.516 852.413,400.193 848.838,399.546C845.873,398.98 843.999,397.16 843.214,394.088C840.25,382.443 837.939,376.216 836.282,375.408C834.887,374.842 823.204,374.559 801.232,374.559C786.41,374.559 778.519,374.922 777.56,375.65C776.078,376.944 774.421,381.27 772.59,388.629C770.933,395.341 768.928,398.98 766.574,399.546C763.609,400.193 753.67,400.516 736.755,400.516C723.415,400.516 716.745,399.344 716.745,396.999C716.745,394.896 726.597,369.06 746.302,319.489C767.664,265.875 779.26,236.4 781.091,231.063C782.137,227.99 783.358,226.454 784.753,226.454C787.107,226.454 790.747,226.656 795.674,227.06C800.6,227.464 804.284,227.667 806.725,227.667C809.079,227.667 812.545,227.525 817.122,227.242C821.7,226.959 825.122,226.817 827.389,226.817C829.046,226.817 830.572,228.152 831.967,230.82C836.239,239.311 848.707,268.423 869.371,318.155C890.122,368.211 900.498,394.33 900.498,396.514ZM703.666,233.125C703.666,242.344 703.252,256.192 702.424,274.67C701.595,293.147 701.181,307.036 701.181,316.335L701.181,396.271C701.181,398.454 699.917,399.546 697.388,399.546C695.296,399.546 692.135,399.627 687.906,399.789C683.678,399.95 680.517,400.031 678.424,400.031C676.158,400.031 672.757,399.869 668.223,399.546C663.689,399.223 660.289,399.061 658.022,399.061C656.453,399.061 654.578,397.727 652.398,395.058C646.12,387.214 631.996,369.828 610.024,342.9C604.008,335.379 594.853,324.301 582.559,309.664C582.21,309.179 581.556,308.694 580.597,308.208C579.899,308.775 579.551,309.664 579.551,310.877C579.551,320.257 579.834,334.328 580.401,353.089C580.968,371.85 581.251,385.92 581.251,395.301C581.251,398.131 580.074,399.546 577.72,399.546L532.468,399.546C529.939,399.546 528.675,398.293 528.675,395.786C528.675,387.052 529.133,373.871 530.048,356.243C530.964,338.614 531.422,325.392 531.422,316.578C531.422,307.279 531.007,293.37 530.179,274.851C529.351,256.333 528.937,242.465 528.937,233.246C528.937,231.467 530.637,230.578 534.037,230.578C539.094,230.578 545.328,230.254 552.74,229.607C554.483,229.446 557.927,228.92 563.072,228.03C567.431,227.303 570.875,226.939 573.404,226.939C574.45,226.939 576.063,228.313 578.243,231.063L627.026,293.046C631.385,298.626 637.968,306.793 646.774,317.548C648.954,320.055 650.829,321.309 652.398,321.309C653.532,321.309 654.098,318.155 654.098,311.847C654.098,303.357 653.597,290.58 652.594,273.517C651.592,256.455 651.09,243.637 651.09,235.066C651.09,232.074 652.006,230.578 653.837,230.578C659.068,230.578 666.959,230.376 677.509,229.971C688.059,229.567 695.95,229.365 701.181,229.365C702.838,229.365 703.666,230.618 703.666,233.125ZM422.608,286.011C420.777,289.569 417.682,297.292 413.322,309.179C408.614,321.794 406.26,329.193 406.26,331.376C406.26,332.832 408.876,333.641 414.107,333.802C416.81,333.964 421.257,334.045 427.447,334.045C433.202,334.045 436.384,333.398 436.995,332.104C437.169,331.7 437.256,331.134 437.256,330.406C437.256,327.737 435.251,320.379 431.24,308.33C427.316,296.685 424.439,289.246 422.608,286.011ZM807.771,286.011C805.94,289.569 802.845,297.292 798.485,309.179C793.777,321.794 791.423,329.193 791.423,331.376C791.423,332.832 794.039,333.641 799.27,333.802C801.973,333.964 806.42,334.045 812.61,334.045C818.365,334.045 821.547,333.398 822.158,332.104C822.332,331.7 822.419,331.134 822.419,330.406C822.419,327.737 820.414,320.379 816.403,308.33C812.48,296.685 809.602,289.246 807.771,286.011Z"/>
    </g>
</svg>
