<?xml version="1.0" encoding="UTF-8" standalone="no"?>
<!DOCTYPE svg PUBLIC "-//W3C//DTD SVG 1.1//EN" "http://www.w3.org/Graphics/SVG/1.1/DTD/svg11.dtd">
<svg width="100%" height="100%" viewBox="0 0 500 500" version="1.1" xmlns="http://www.w3.org/2000/svg" xmlns:xlink="http://www.w3.org/1999/xlink" xml:space="preserve" xmlns:serif="http://www.serif.com/" style="fill-rule:evenodd;clip-rule:evenodd;stroke-linejoin:round;stroke-miterlimit:2;">
    <rect id="Artboard1" x="0" y="0" width="500" height="500" style="fill:none;"/>
    <g transform="matrix(0.889858,0,0,0.922394,27.5356,19.4021)">
        <g>
            <g transform="matrix(1,0,0,1,-6.2582e-05,-0.000726075)">
                <path d="M355.669,345.115C334.058,338.043 311.207,336.338 290.238,341.824L457.701,232.677L444.54,432.136C438.899,410.573 425.655,390.999 408.184,375.388C372.533,418.575 335.894,442.306 300.709,453.48C242.738,471.891 187.427,456.707 142.099,430.657C78.9,394.335 36.291,337.362 36.282,337.35C26.427,324.184 29.116,305.493 42.283,295.639C55.449,285.784 74.14,288.473 83.994,301.64C83.994,301.64 119.372,348.858 171.795,378.986C203.555,397.239 242.052,409.58 282.67,396.68C306.783,389.022 331.231,372.683 355.669,345.115ZM91.816,124.612C127.467,81.425 164.106,57.694 199.291,46.52C257.262,28.109 312.573,43.293 357.901,69.343C421.1,105.665 463.709,162.638 463.718,162.65C473.573,175.816 470.884,194.507 457.717,204.361C444.551,214.216 425.86,211.527 416.006,198.36C416.006,198.36 380.628,151.142 328.205,121.014C296.445,102.761 257.948,90.42 217.33,103.32C193.217,110.978 168.769,127.317 144.331,154.885C165.942,161.957 188.793,163.662 209.762,158.176L42.299,267.323L55.46,67.864C61.101,89.427 74.345,109.001 91.816,124.612Z"/>
            </g>
            <g transform="matrix(1,0,0,1,-6.2582e-05,-0.000726075)">
                <path d="M103.025,30.267C90.439,15.385 70.719,6.848 49.815,8.713C19.689,11.4 -3.93,34.891 -5.856,64.082L-19.017,263.541C-19.264,267.292 -19.142,271.012 -18.639,274.656C-36.164,304.374 -35.422,342.878 -13.492,372.176C-13.481,372.191 -13.469,372.206 -13.458,372.221C-13.447,372.235 36.544,439.097 110.704,481.719C110.705,481.719 110.705,481.719 110.705,481.72C170.405,516.029 243.531,534.164 319.883,509.916C345.025,501.931 371.006,489.188 396.975,469.733C409.561,484.615 429.281,493.152 450.185,491.287C480.311,488.6 503.93,465.109 505.856,435.918L519.017,236.459C519.264,232.708 519.142,228.988 518.639,225.344C536.164,195.626 535.422,157.122 513.492,127.824C513.481,127.809 513.469,127.794 513.458,127.779C513.447,127.765 463.456,60.903 389.296,18.281C389.295,18.281 389.295,18.281 389.295,18.28C329.595,-16.029 256.469,-34.164 180.117,-9.916C154.975,-1.931 128.994,10.812 103.025,30.267ZM355.669,345.115C334.058,338.043 311.207,336.338 290.238,341.824L457.701,232.677L444.54,432.136C438.899,410.573 425.655,390.999 408.184,375.388C372.533,418.575 335.894,442.306 300.709,453.48C242.738,471.891 187.427,456.707 142.099,430.657C78.9,394.335 36.291,337.362 36.282,337.35C26.427,324.184 29.116,305.493 42.283,295.639C55.449,285.784 74.14,288.473 83.994,301.64C83.994,301.64 119.372,348.858 171.795,378.986C203.555,397.239 242.052,409.58 282.67,396.68C306.783,389.022 331.231,372.683 355.669,345.115ZM91.816,124.612C127.467,81.425 164.106,57.694 199.291,46.52C257.262,28.109 312.573,43.293 357.901,69.343C421.1,105.665 463.709,162.638 463.718,162.65C473.573,175.816 470.884,194.507 457.717,204.361C444.551,214.216 425.86,211.527 416.006,198.36C416.006,198.36 380.628,151.142 328.205,121.014C296.445,102.761 257.948,90.42 217.33,103.32C193.217,110.978 168.769,127.317 144.331,154.885C165.942,161.957 188.793,163.662 209.762,158.176L42.299,267.323L55.46,67.864C61.101,89.427 74.345,109.001 91.816,124.612Z" style="fill:white;"/>
            </g>
        </g>
    </g>
</svg>
